<?xml version="1.0" encoding="UTF-8" standalone="no"?>
<!DOCTYPE svg PUBLIC "-//W3C//DTD SVG 1.1//EN" "http://www.w3.org/Graphics/SVG/1.1/DTD/svg11.dtd">
<svg width="100%" height="100%" viewBox="0 0 75 69" version="1.1" xmlns="http://www.w3.org/2000/svg" xmlns:xlink="http://www.w3.org/1999/xlink" xml:space="preserve" xmlns:serif="http://www.serif.com/" style="fill-rule:evenodd;clip-rule:evenodd;stroke-linejoin:round;stroke-miterlimit:2;">
    <g transform="matrix(8.33333,0,0,8.33333,-787.5,-174.069)">
        <g transform="matrix(1,0,0,1,53.165,181)">
            <g transform="matrix(1,0,0,1,218.49,-592.332)">
                <path d="M-177.089,436.691L-176.057,440.498L-172.72,440.498L-177.089,436.691Z" style="fill:rgb(35,31,32);fill-rule:nonzero;"/>
            </g>
            <g transform="matrix(-1,0,0,1,-126.82,-592.332)">
                <path d="M-177.089,436.691L-176.057,440.498L-172.72,440.498L-177.089,436.691Z" style="fill:rgb(35,31,32);fill-rule:nonzero;"/>
            </g>
        </g>
        <g transform="matrix(-1,0,0,-1,-83.9397,464.127)">
            <path d="M-179.34,438.747L-182.94,435.651L-186.54,438.747L-179.34,438.747Z" style="fill:rgb(35,31,32);fill-rule:nonzero;"/>
        </g>
        <g transform="matrix(1,0,0,1,282.343,-412.064)">
            <path d="M-183.668,432.952L-187.843,436.874L-183.667,436.874" style="fill:rgb(35,31,32);fill-rule:nonzero;"/>
        </g>
        <g transform="matrix(-1,0,0,1,-84.3429,-412.064)">
            <path d="M-183.668,432.952L-187.843,436.874L-183.667,436.874" style="fill:rgb(35,31,32);fill-rule:nonzero;"/>
        </g>
    </g>
</svg>
